<svg width="493" height="493" viewBox="0 0 493 493" fill="none" xmlns="http://www.w3.org/2000/svg">
<path d="M246.2 492.3C382.062 492.3 492.2 382.162 492.2 246.3C492.2 110.438 382.062 0.300003 246.2 0.300003C110.338 0.300003 0.200012 110.438 0.200012 246.3C0.200012 382.162 110.338 492.3 246.2 492.3Z" fill="white"/>
<path d="M373.8 441.9C368.5 448.9 361.5 454 354.1 458.6C332.7 471.9 309.4 479.7 284.4 483.2C275.8 484.4 267.3 485.5 258.7 485.9C257.1 486 255.1 486.4 254.6 484.2C252.8 476.5 246.4 474.7 240.2 474.2C213.4 472.2 188.8 462.5 164.4 452.5C153.5 448 146.2 453.5 147.6 466C141 463 135.1 459.4 129.3 455.7C86.1 427.3 52.2 390.6 29.5 344C22.8 330.3 17.8 315.9 13.1 301.4C11.6 296.9 11 292.4 10.2 287.8C9.50001 283.8 11.1 284.8 13.2 286.1C13.4 286.6 13.6 287 14.2 286.8C19.2 289 24 292.3 30 290.2C37.1 287.6 38.3 281.4 39.2 275.1C40.6 266.1 40.7 257 40.3 247.9C40 241.7 38.9 235.5 37.2 229.5C33.7 216.7 25.3 217.1 16.6 223.5C14.5 225 13 227.3 11.2 229.3C10.9 229.4 10.5 229.4 10.2 229.5C8.90001 224.6 10.8 219.8 11.5 215.1C14.7 193.9 19.8 173.1 27.3 152.9C33.7 136 42 120.1 53.4 106C53.6 105.8 54 105.8 54.8 105.6C54.4 108.7 54 111.7 53.5 114.6C53.5 114.9 53.3 115.2 53.2 115.6C52.9 118.6 52.9 122.2 55.5 123.8C58.2 125.5 60.9 122.8 62.8 121.1C68.7 115.8 75.2 111.3 81.9 107.1C82.7 106.6 83.4 106.4 84.4 106.8C84.6 108.6 83.4 109.6 82.3 110.8C75.1 118.3 67.9 126 60.6 133.4C58.7 135.3 57.9 136.6 60.7 138.2C69.3 143.2 70.5 151.4 68.7 159.8C64.7 179.1 60.2 198.3 58.5 218C57.6 228.6 56.8 239.5 60 250.1C61.5 254.9 64.3 258.2 69.1 259.7C71.7 260.5 72.1 261.3 71.4 264.2C67.7 280.5 73.5 294.2 83.8 306.5C85.6 308.7 88.1 310.2 89.4 312.8C89.2 313 89.1 313.2 88.9 313.4C87.7 313.3 86.6 313.2 85.4 313.2C80.1 313.1 77.9 316.2 79.7 321.3C81.7 326.9 85.9 330 91.7 331.5C77.9 341.5 77 353.5 83.9 367.8C91.8 384.2 105.2 395.6 119.3 406.3C130.9 415 143.6 421.3 158 423.7C169 425.5 179 422.9 188.1 415.1C190.1 423.2 196.3 426.9 202.4 430.9C217.7 440.9 233.3 450.4 250.8 456.1C253.5 457 256.2 458.7 259.2 456.9C259.8 456.6 260.3 456.5 261 456.8C269.5 461.1 278.6 459.9 287.1 457.8C298.6 454.9 310 451.9 321.7 449.7C327.8 448.6 334 448.8 340.1 449.1C350.8 449.6 360.8 447.1 370.4 442.8C371.6 442.3 372.6 441.6 373.8 441.9ZM85.3 390.2C85.4 386.3 78.8 377.5 74.6 376C72.7 375.3 70.5 374.8 69 376.5C67.3 378.5 68.8 380.4 70 381.9C73.1 385.8 75 390 74.8 395C74.8 395.8 74.7 396.2 75.5 396.5C78.7 397.9 85.2 393.7 85.3 390.2ZM61.8 336.1C64.1 334.7 68.6 335.6 68.9 331.2C69.2 327.2 63.7 321.2 60.4 321.3C57.6 321.3 53.3 325.8 53.3 328.6C53.4 332 57.7 336.1 61.8 336.1ZM39.2 158.4C39.5 160.7 38.5 164.2 42.5 164.2C46 164.2 48.9 161.9 49 158.5C49.2 154.1 48.2 149.7 47.6 145.3C47.4 144.1 47 142.5 45.2 142.5C43.9 142.5 43.3 143.7 42.8 144.8C40.9 149.1 39.2 153.4 39.2 158.4ZM47.2 200.8C47.6 199.1 46.7 197 45.9 195.1C45 193.2 43.1 192.1 41 192.4C38.8 192.8 38.4 194.7 38.4 196.6C38.4 200.3 38.3 203.9 38.4 207.6C38.5 209.3 39.1 210.9 41.1 211.2C43 211.5 44.3 210.6 45.1 209C46.4 206.6 47.3 204.1 47.2 200.8Z" fill="#BEB88D"/>
<path d="M241.6 311.1C258 310.7 273.4 314.1 286.5 324.5C297.9 333.6 306.9 345.2 311.7 358.6C316.6 372.1 312.3 380.9 294.1 383.8C274.8 386.9 255.8 383.2 239.5 373.1C224.9 364.1 212.5 351.1 211.2 332.2C210.5 321.8 221.1 311.4 231.6 311.1C234.9 311 238.2 311.1 241.6 311.1Z" fill="#BEB88D"/>
<path d="M164.9 411.3C149.7 410.6 136.1 403.5 123.2 394.7C112.7 387.5 103.4 379 96.6 368.2C95 365.7 93.5 363 92.7 360.2C90.2 352.1 97.4 345 105.7 346.8C111.5 348.1 117.6 347.1 123.6 347.7C146.9 350.3 161.9 364.5 174.1 382.8C178 388.7 181.7 395 182.3 402.3C182.8 408.3 181.8 409.7 175.8 410.7C172.4 411.2 169.1 411.1 164.9 411.3Z" fill="#BEB88D"/>
<path d="M92.2 266.2C96.1 265.3 99.7 267.4 102.4 270.2C110.9 278.7 117 288.5 117.1 301.1C117.1 305.3 116.7 309.9 112.4 311.8C108 313.7 104 311.4 101.1 307.7C93.3 297.5 85.2 287.3 84.3 273.7C83.9 267 84.9 266.2 92.2 266.2Z" fill="#BEB88D"/>
<path d="M88.3 182C87.5 177.3 90 173.4 91.9 169.4C93.4 166.3 96.1 165.1 99.2 167.7C105.5 173.2 109.2 180.3 111.2 188.3C112.3 192.6 110.4 196.1 106.3 198.1C101.5 200.5 97.2 198.9 93.5 195.9C89.1 192.4 87.8 187.5 88.3 182Z" fill="#BEB88D"/>
<path d="M169.4 465.5C176.4 463.5 216.1 473 223.7 478.5C213.3 487.2 174.8 478 169.4 465.5Z" fill="#BEB88D"/>
<path d="M221 375.8C230.5 382.8 240 389.9 251.9 392.1C263 394.1 273.8 398.6 285.5 395.7C263.5 408.4 225.6 396.5 209.7 366.8C213.1 369.5 216.5 372.3 219.9 375C220.3 375.3 220.7 375.6 221 375.8Z" fill="#BEB88D"/>
<path d="M27.4 245.9C26.4 254.2 23.6 262.4 20.8 270.7C20.3 272.1 19.1 273.2 17.4 273.2C15.5 273.2 15 271.6 14.4 270.3C10.8 262.6 14.6 246.8 21.4 241.9C22.7 241 24.2 239.7 25.9 240.6C27.9 241.6 27.1 243.8 27.4 245.9Z" fill="#BEB88D"/>
<path d="M92.1 201.2C81 198.3 77.3 187.2 82.6 177.1C82.6 186.5 84 195.2 92.1 201.2Z" fill="#BEB88D"/>
<path d="M14.3 286.9C13.7 287.1 13.4 286.6 13.3 286.2C13.6 286.4 13.9 286.6 14.3 286.9Z" fill="#FDFDFB"/>
<path d="M221 375.8C220.6 375.5 220.3 375.3 219.9 375C220.3 375.3 220.7 375.6 221 375.8Z" fill="#FDFDFB"/>
<path d="M373.9 442C374 441.8 374.1 441.7 374.2 441.5C374.2 441.6 374.2 441.7 374.2 441.8C374.1 441.8 373.9 441.8 373.9 442Z" fill="#BEB88D"/>
</svg>
